<svg width="131" height="32" viewBox="0 0 131 32" fill="none" xmlns="http://www.w3.org/2000/svg">
<path d="M98.6053 7.58006C98.6053 6.54671 97.8676 5.80859 96.8342 5.80859C95.8007 5.80859 95.0622 6.54671 95.0622 7.58006C95.0622 8.61342 95.8007 9.35153 96.8342 9.35153C97.8676 9.35153 98.6053 8.61342 98.6053 7.58006Z" fill="white"/>
<path d="M95.4315 22.1945H98.3104V10.8277H95.4315V22.1945Z" fill="white"/>
<path d="M127.469 22.1915H124.591V15.9914C124.591 14.0723 123.705 13.039 122.008 13.039C120.31 13.039 119.055 14.2937 119.055 16.2128V22.1915H116.176V10.8246H119.055V12.4485C119.72 11.2675 120.974 10.5294 122.672 10.5294C125.624 10.5294 127.469 12.4485 127.469 15.7699V22.1915Z" fill="white"/>
<path fill-rule="evenodd" clip-rule="evenodd" d="M113.074 10.9734V22.1926H110.196V20.6426C109.458 21.8974 108.055 22.5616 106.505 22.5616C103.331 22.5616 100.97 19.9045 100.97 16.5831C100.896 13.2616 103.331 10.5305 106.505 10.6044C108.055 10.6044 109.458 11.2686 110.196 12.5235V10.9734H113.074ZM106.875 13.0401C105.915 13.0401 105.103 13.3354 104.513 14.0735C103.922 14.7377 103.626 15.5497 103.626 16.5831C103.626 18.5021 104.956 20.0521 106.875 20.0521C108.794 20.0521 110.122 18.6497 110.122 16.5831C110.122 14.3687 108.794 13.0401 106.875 13.0401Z" fill="white"/>
<path d="M92.1845 22.1915H89.3799V15.9914C89.3799 14.0723 88.5679 13.039 87.0917 13.039C85.6155 13.039 84.5085 14.3676 84.5085 16.2867V22.2652H81.6296V16.0652C81.6296 14.1461 80.8175 13.1127 79.3413 13.1127C78.6036 13.1127 77.9394 13.408 77.4966 13.9985C77.0538 14.6628 76.7581 15.4009 76.7581 16.2867V22.2652H73.88V10.8246H76.7581V12.4485C77.4223 11.2675 78.6036 10.5294 80.0063 10.5294C81.7774 10.5294 83.1058 11.3413 83.8443 12.7437C84.582 11.3413 85.9112 10.5294 87.6823 10.5294C90.4869 10.5294 92.1845 12.4485 92.1845 15.7699V22.1915Z" fill="white"/>
<path d="M66.1314 20.1245C64.6552 20.1245 63.4005 19.4602 62.81 18.5007L60.5219 19.6078C60.9647 20.3459 61.7028 21.0102 62.6624 21.5269C63.6219 22.0436 64.7291 22.3388 65.9838 22.3388C69.01 22.3388 71.2981 20.8626 71.2981 18.7221C71.2981 17.0245 70.1172 15.9911 67.7553 15.4745L66.0576 15.1054C64.2862 14.7364 63.8433 14.4411 63.8433 13.7768C63.8433 13.1125 64.7291 12.6696 65.9838 12.6696C67.2386 12.6696 68.4934 13.2601 69.01 14.072L71.1505 12.891C70.7077 12.1529 70.0434 11.6363 69.1577 11.1197C68.2719 10.6029 67.2386 10.3815 66.1314 10.3815C63.2528 10.3815 61.1861 11.8577 61.1861 13.9982C61.1861 15.6959 62.3671 16.7292 64.7291 17.2459L66.4267 17.615C68.1982 18.0578 68.641 18.3531 68.641 19.0173C68.641 19.6816 67.5338 20.1245 66.1314 20.1245Z" fill="white"/>
<path fill-rule="evenodd" clip-rule="evenodd" d="M52.8459 10.4553C56.315 10.4553 58.8984 13.0388 58.8984 16.434C58.8984 19.8293 56.315 22.4127 52.8459 22.4127C49.4506 22.4864 46.7196 19.7555 46.7935 16.434C46.7196 13.1125 49.4506 10.4553 52.8459 10.4553ZM52.8459 13.0388C50.9268 13.0388 49.5982 14.5149 49.5982 16.434C49.5982 17.4674 49.8935 18.2055 50.484 18.9436C51.1483 19.5341 51.8864 19.9031 52.8459 19.9031C53.8793 19.9031 54.6174 19.6078 55.2079 18.9436C55.8722 18.2792 56.1674 17.4674 56.1674 16.434C56.1674 14.5149 54.8388 13.0388 52.8459 13.0388Z" fill="white"/>
<path d="M45.2417 13.1125C44.2083 11.4887 42.2892 10.4553 40.1487 10.4553C36.6797 10.4553 34.0225 13.1125 34.0962 16.5816C34.0225 19.9031 36.7534 22.6341 40.1487 22.5603C42.363 22.5603 44.2083 21.5269 45.2417 19.9031L42.8797 18.5007C42.2892 19.3865 41.3297 19.9031 40.1487 19.9031C39.1892 19.9031 38.451 19.6078 37.7868 18.9436C37.1963 18.2055 36.9011 17.4674 36.9011 16.434C36.9011 14.5149 38.2297 13.0388 40.1487 13.0388C41.3297 13.0388 42.2892 13.6293 42.8797 14.4411L45.2417 13.1125Z" fill="white"/>
<circle cx="15.8186" cy="16.2229" r="13.1897" fill="#F14611"/>
<path d="M19.8094 24.1344H14.1953C12.7749 24.1344 11.5912 22.9653 11.5912 21.5624C11.5912 21.4622 11.4897 21.362 11.3883 21.362C9.93405 21.362 8.78418 20.1929 8.78418 18.7899V13.2117C8.78418 11.8087 9.96787 10.6396 11.3883 10.6396C11.5236 10.6396 11.5912 10.5394 11.5912 10.4392C11.5912 9.03629 12.7749 7.86719 14.1953 7.86719H19.8094C21.2298 7.86719 22.4135 9.03629 22.4135 10.4392V10.7732C22.4135 12.1762 21.2298 13.3453 19.8094 13.3453H14.4997C14.3982 13.3453 14.2968 13.4455 14.2968 13.5457V18.4225C14.2968 18.5227 14.3982 18.6229 14.4997 18.6229H19.7755C21.196 18.6229 22.3797 19.792 22.3797 21.195V21.529C22.4135 22.9653 21.2636 24.1344 19.8094 24.1344ZM14.1953 9.1031C13.4513 9.1031 12.8763 9.70435 12.8763 10.4058C12.8763 11.2409 12.2 11.8755 11.3883 11.8755C10.6443 11.8755 10.0693 12.4768 10.0693 13.1783V18.7231C10.0693 19.458 10.6781 20.0259 11.3883 20.0259C12.2338 20.0259 12.8763 20.6939 12.8763 21.4956C12.8763 22.2305 13.4851 22.7983 14.1953 22.7983H19.8094C20.5534 22.7983 21.1283 22.1971 21.1283 21.4956V21.1616C21.1283 20.4267 20.5196 19.8588 19.8094 19.8588H14.4997C13.6542 19.8588 13.0116 19.1908 13.0116 18.3891V13.5457C13.0116 12.7106 13.688 12.076 14.4997 12.076H19.7755C20.5196 12.076 21.0945 11.4747 21.0945 10.7732V10.4392C21.0945 9.70435 20.4858 9.1365 19.7755 9.1365H14.1953V9.1031Z" fill="white"/>
</svg>
